<svg xmlns="http://www.w3.org/2000/svg" width="1100" height="520" viewBox="0 0 1100 520">
<defs><marker id="arrow" markerWidth="10" markerHeight="10" refX="8" refY="3" orient="auto" markerUnits="strokeWidth"><path d="M0,0 L0,6 L9,3 z" fill="#2d3748" /></marker></defs>
<style>text{font-family: Arial, sans-serif; font-size: 14px;}.title{font-size:24px;font-weight:bold}.box{fill:#f8fafc;stroke:#2d3748;stroke-width:1.5;rx:14}.sub{font-size:12px;fill:#4a5568}.lbl{font-weight:bold}</style>
<text x="30" y="40" class="title">Flujo LLM → JSON → MQTT/WebSocket → Robot</text>
<rect x="40" y="130" width="190" height="100" class="box" rx="14"/>
<text x="135.0" y="160" text-anchor="middle" class="lbl">LLM</text>
<text x="135.0" y="185" text-anchor="middle" class="sub">interpreta intención</text>
<rect x="280" y="130" width="190" height="100" class="box" rx="14"/>
<text x="375.0" y="160" text-anchor="middle" class="lbl">JSON validado</text>
<text x="375.0" y="185" text-anchor="middle" class="sub">schema y guardrails</text>
<rect x="520" y="130" width="190" height="100" class="box" rx="14"/>
<text x="615.0" y="160" text-anchor="middle" class="lbl">Broker MQTT</text>
<text x="615.0" y="185" text-anchor="middle" class="sub">tópicos QoS logs</text>
<rect x="760" y="130" width="230" height="100" class="box" rx="14"/>
<text x="875.0" y="160" text-anchor="middle" class="lbl">Robot / Simulador</text>
<text x="875.0" y="185" text-anchor="middle" class="sub">actuador físico o virtual</text>
<rect x="760" y="320" width="230" height="100" class="box" rx="14"/>
<text x="875.0" y="350" text-anchor="middle" class="lbl">Estado / Telemetría</text>
<text x="875.0" y="375" text-anchor="middle" class="sub">pose · sensores · errores</text>
<rect x="280" y="320" width="190" height="100" class="box" rx="14"/>
<text x="375.0" y="350" text-anchor="middle" class="lbl">Evaluación</text>
<text x="375.0" y="375" text-anchor="middle" class="sub">éxito · latencia · seguridad</text>
<line x1="230" y1="180.0" x2="280" y2="180.0" stroke="#2d3748" stroke-width="2" marker-end="url(#arrow)"/>
<text x="255.0" y="172.0" text-anchor="middle" class="sub">salida estructurada</text>
<line x1="470" y1="180.0" x2="520" y2="180.0" stroke="#2d3748" stroke-width="2" marker-end="url(#arrow)"/>
<text x="495.0" y="172.0" text-anchor="middle" class="sub">publica</text>
<line x1="710" y1="180.0" x2="760" y2="180.0" stroke="#2d3748" stroke-width="2" marker-end="url(#arrow)"/>
<text x="735.0" y="172.0" text-anchor="middle" class="sub">comando</text>
<line x1="990" y1="180.0" x2="760" y2="370.0" stroke="#2d3748" stroke-width="2" marker-end="url(#arrow)"/>
<text x="875.0" y="267.0" text-anchor="middle" class="sub">feedback</text>
<line x1="990" y1="370.0" x2="280" y2="370.0" stroke="#2d3748" stroke-width="2" marker-end="url(#arrow)"/>
<text x="635.0" y="362.0" text-anchor="middle" class="sub">métricas</text>
</svg>